<mxfile host="Electron" agent="Mozilla/5.0 (Windows NT 10.0; Win64; x64) AppleWebKit/537.36 (KHTML, like Gecko) draw.io/24.7.8 Chrome/128.0.6613.36 Electron/32.0.1 Safari/537.36" version="24.7.8" pages="3">
  <diagram name="Page-1" id="ZvQFCFstBuYFzI6CjcF1">
    <mxGraphModel dx="1061" dy="921" grid="1" gridSize="10" guides="1" tooltips="1" connect="1" arrows="1" fold="1" page="1" pageScale="1" pageWidth="827" pageHeight="1169" math="1" shadow="0">
      <root>
        <mxCell id="0" />
        <mxCell id="1" parent="0" />
        <mxCell id="OFoN1nyVccEU_4wCaDRe-27" value="" style="edgeStyle=orthogonalEdgeStyle;rounded=0;orthogonalLoop=1;jettySize=auto;html=1;strokeWidth=2;endArrow=blockThin;endFill=1;" edge="1" parent="1" source="OFoN1nyVccEU_4wCaDRe-1" target="OFoN1nyVccEU_4wCaDRe-25">
          <mxGeometry relative="1" as="geometry" />
        </mxCell>
        <mxCell id="OFoN1nyVccEU_4wCaDRe-1" value="D(z)" style="rounded=0;whiteSpace=wrap;html=1;fontFamily=IBM Plex sans;fontSize=16;strokeWidth=2;" vertex="1" parent="1">
          <mxGeometry x="250" y="110" width="60" height="50" as="geometry" />
        </mxCell>
        <mxCell id="OFoN1nyVccEU_4wCaDRe-13" style="edgeStyle=orthogonalEdgeStyle;rounded=0;orthogonalLoop=1;jettySize=auto;html=1;entryX=0;entryY=0.5;entryDx=0;entryDy=0;strokeWidth=2;endArrow=blockThin;endFill=1;" edge="1" parent="1" source="OFoN1nyVccEU_4wCaDRe-3" target="OFoN1nyVccEU_4wCaDRe-4">
          <mxGeometry relative="1" as="geometry" />
        </mxCell>
        <mxCell id="OFoN1nyVccEU_4wCaDRe-3" value="ZOH(s)" style="rounded=0;whiteSpace=wrap;html=1;fontFamily=IBM Plex sans;fontSize=16;strokeWidth=2;" vertex="1" parent="1">
          <mxGeometry x="410" y="110" width="60" height="50" as="geometry" />
        </mxCell>
        <mxCell id="OFoN1nyVccEU_4wCaDRe-14" style="edgeStyle=orthogonalEdgeStyle;rounded=0;orthogonalLoop=1;jettySize=auto;html=1;strokeWidth=2;endArrow=blockThin;endFill=1;" edge="1" parent="1" source="OFoN1nyVccEU_4wCaDRe-4">
          <mxGeometry relative="1" as="geometry">
            <mxPoint x="680" y="135" as="targetPoint" />
          </mxGeometry>
        </mxCell>
        <mxCell id="OFoN1nyVccEU_4wCaDRe-4" value="G&lt;sub style=&quot;font-size: 16px;&quot;&gt;P&lt;/sub&gt;(s)" style="rounded=0;whiteSpace=wrap;html=1;fontFamily=IBM Plex sans;fontSize=16;strokeWidth=2;" vertex="1" parent="1">
          <mxGeometry x="540" y="110" width="60" height="50" as="geometry" />
        </mxCell>
        <mxCell id="OFoN1nyVccEU_4wCaDRe-11" style="edgeStyle=orthogonalEdgeStyle;rounded=0;orthogonalLoop=1;jettySize=auto;html=1;strokeWidth=2;endArrow=blockThin;endFill=1;" edge="1" parent="1" source="OFoN1nyVccEU_4wCaDRe-7" target="OFoN1nyVccEU_4wCaDRe-1">
          <mxGeometry relative="1" as="geometry" />
        </mxCell>
        <mxCell id="OFoN1nyVccEU_4wCaDRe-7" value="" style="pointerEvents=1;verticalLabelPosition=bottom;shadow=0;dashed=0;align=center;html=1;verticalAlign=top;shape=mxgraph.electrical.signal_sources.dc_source_1;strokeWidth=2;" vertex="1" parent="1">
          <mxGeometry x="170" y="115" width="37.33" height="40" as="geometry" />
        </mxCell>
        <mxCell id="OFoN1nyVccEU_4wCaDRe-23" value="" style="edgeStyle=orthogonalEdgeStyle;rounded=0;orthogonalLoop=1;jettySize=auto;html=1;strokeWidth=2;endArrow=blockThin;endFill=1;" edge="1" parent="1" source="OFoN1nyVccEU_4wCaDRe-9" target="OFoN1nyVccEU_4wCaDRe-21">
          <mxGeometry relative="1" as="geometry" />
        </mxCell>
        <mxCell id="OFoN1nyVccEU_4wCaDRe-9" value="" style="pointerEvents=1;verticalLabelPosition=bottom;shadow=0;dashed=0;align=center;html=1;verticalAlign=top;shape=mxgraph.electrical.signal_sources.source;aspect=fixed;points=[[0.5,0,0],[1,0.5,0],[0.5,1,0],[0,0.5,0]];elSignalType=dc1;strokeWidth=2;" vertex="1" parent="1">
          <mxGeometry x="50" y="115" width="40" height="40" as="geometry" />
        </mxCell>
        <mxCell id="OFoN1nyVccEU_4wCaDRe-18" value="" style="pointerEvents=1;verticalLabelPosition=bottom;shadow=0;dashed=0;align=center;html=1;verticalAlign=top;shape=mxgraph.electrical.plc_ladder.not_contact;strokeWidth=2;" vertex="1" parent="1">
          <mxGeometry x="363" y="200" width="50" height="25" as="geometry" />
        </mxCell>
        <mxCell id="OFoN1nyVccEU_4wCaDRe-19" style="edgeStyle=orthogonalEdgeStyle;rounded=0;orthogonalLoop=1;jettySize=auto;html=1;exitX=1;exitY=0.5;exitDx=0;exitDy=0;entryX=1;entryY=0.5;entryDx=0;entryDy=0;entryPerimeter=0;strokeWidth=2;endArrow=blockThin;endFill=1;" edge="1" parent="1" source="OFoN1nyVccEU_4wCaDRe-4" target="OFoN1nyVccEU_4wCaDRe-18">
          <mxGeometry relative="1" as="geometry" />
        </mxCell>
        <mxCell id="OFoN1nyVccEU_4wCaDRe-20" style="edgeStyle=orthogonalEdgeStyle;rounded=0;orthogonalLoop=1;jettySize=auto;html=1;entryX=0.58;entryY=0.935;entryDx=0;entryDy=0;entryPerimeter=0;strokeWidth=2;endArrow=blockThin;endFill=1;" edge="1" parent="1" source="OFoN1nyVccEU_4wCaDRe-18" target="OFoN1nyVccEU_4wCaDRe-7">
          <mxGeometry relative="1" as="geometry" />
        </mxCell>
        <mxCell id="OFoN1nyVccEU_4wCaDRe-24" value="" style="edgeStyle=orthogonalEdgeStyle;rounded=0;orthogonalLoop=1;jettySize=auto;html=1;strokeWidth=2;endArrow=blockThin;endFill=1;" edge="1" parent="1" source="OFoN1nyVccEU_4wCaDRe-21" target="OFoN1nyVccEU_4wCaDRe-7">
          <mxGeometry relative="1" as="geometry" />
        </mxCell>
        <mxCell id="OFoN1nyVccEU_4wCaDRe-21" value="" style="pointerEvents=1;verticalLabelPosition=bottom;shadow=0;dashed=0;align=center;html=1;verticalAlign=top;shape=mxgraph.electrical.plc_ladder.not_contact;strokeWidth=2;" vertex="1" parent="1">
          <mxGeometry x="110" y="122.5" width="50" height="25" as="geometry" />
        </mxCell>
        <mxCell id="OFoN1nyVccEU_4wCaDRe-26" value="" style="edgeStyle=orthogonalEdgeStyle;rounded=0;orthogonalLoop=1;jettySize=auto;html=1;strokeWidth=2;endArrow=blockThin;endFill=1;" edge="1" parent="1" source="OFoN1nyVccEU_4wCaDRe-25" target="OFoN1nyVccEU_4wCaDRe-3">
          <mxGeometry relative="1" as="geometry" />
        </mxCell>
        <mxCell id="OFoN1nyVccEU_4wCaDRe-25" value="" style="pointerEvents=1;verticalLabelPosition=bottom;shadow=0;dashed=0;align=center;html=1;verticalAlign=top;shape=mxgraph.electrical.plc_ladder.not_contact;strokeWidth=2;" vertex="1" parent="1">
          <mxGeometry x="340" y="122.5" width="50" height="25" as="geometry" />
        </mxCell>
        <mxCell id="OFoN1nyVccEU_4wCaDRe-28" value="W(s)" style="text;html=1;align=center;verticalAlign=middle;resizable=0;points=[];autosize=1;strokeColor=none;fillColor=none;fontFamily=IBM Plex sans;fontSize=14;strokeWidth=2;" vertex="1" parent="1">
          <mxGeometry x="45" y="160" width="50" height="30" as="geometry" />
        </mxCell>
        <mxCell id="OFoN1nyVccEU_4wCaDRe-29" value="W(z)" style="text;html=1;align=center;verticalAlign=middle;resizable=0;points=[];autosize=1;strokeColor=none;fillColor=none;fontFamily=IBM Plex sans;fontSize=14;" vertex="1" parent="1">
          <mxGeometry x="110" y="50" width="50" height="30" as="geometry" />
        </mxCell>
        <mxCell id="OFoN1nyVccEU_4wCaDRe-31" value="E(z)" style="text;html=1;align=center;verticalAlign=middle;resizable=0;points=[];autosize=1;strokeColor=none;fillColor=none;fontFamily=IBM Plex sans;fontSize=14;" vertex="1" parent="1">
          <mxGeometry x="200" y="50" width="50" height="30" as="geometry" />
        </mxCell>
        <mxCell id="OFoN1nyVccEU_4wCaDRe-32" value="U(z)" style="text;html=1;align=center;verticalAlign=middle;resizable=0;points=[];autosize=1;strokeColor=none;fillColor=none;fontFamily=IBM Plex sans;fontSize=14;" vertex="1" parent="1">
          <mxGeometry x="313" y="50" width="50" height="30" as="geometry" />
        </mxCell>
        <mxCell id="OFoN1nyVccEU_4wCaDRe-33" value="Y(s)" style="text;html=1;align=center;verticalAlign=middle;resizable=0;points=[];autosize=1;strokeColor=none;fillColor=none;fontFamily=IBM Plex sans;fontSize=14;" vertex="1" parent="1">
          <mxGeometry x="650" y="50" width="50" height="30" as="geometry" />
        </mxCell>
        <mxCell id="OFoN1nyVccEU_4wCaDRe-34" value="Y(z)" style="text;html=1;align=center;verticalAlign=middle;resizable=0;points=[];autosize=1;strokeColor=none;fillColor=none;fontFamily=IBM Plex sans;fontSize=14;strokeWidth=2;" vertex="1" parent="1">
          <mxGeometry x="250" y="180" width="50" height="30" as="geometry" />
        </mxCell>
        <mxCell id="OFoN1nyVccEU_4wCaDRe-35" value="U(s)" style="text;html=1;align=center;verticalAlign=middle;resizable=0;points=[];autosize=1;strokeColor=none;fillColor=none;fontFamily=IBM Plex sans;fontSize=14;" vertex="1" parent="1">
          <mxGeometry x="480" y="50" width="50" height="30" as="geometry" />
        </mxCell>
        <mxCell id="OFoN1nyVccEU_4wCaDRe-36" value="" style="endArrow=none;html=1;rounded=0;entryX=0.18;entryY=1.03;entryDx=0;entryDy=0;entryPerimeter=0;strokeColor=#666666;" edge="1" parent="1" target="OFoN1nyVccEU_4wCaDRe-29">
          <mxGeometry width="50" height="50" relative="1" as="geometry">
            <mxPoint x="160" y="120" as="sourcePoint" />
            <mxPoint x="140" y="80" as="targetPoint" />
            <Array as="points">
              <mxPoint x="150" y="80" />
            </Array>
          </mxGeometry>
        </mxCell>
        <mxCell id="OFoN1nyVccEU_4wCaDRe-37" value="" style="endArrow=none;html=1;rounded=0;entryX=0.066;entryY=1.014;entryDx=0;entryDy=0;entryPerimeter=0;strokeColor=#666666;" edge="1" parent="1" target="OFoN1nyVccEU_4wCaDRe-31">
          <mxGeometry width="50" height="50" relative="1" as="geometry">
            <mxPoint x="220" y="130" as="sourcePoint" />
            <mxPoint x="150" y="90" as="targetPoint" />
            <Array as="points">
              <mxPoint x="240" y="80" />
            </Array>
          </mxGeometry>
        </mxCell>
        <mxCell id="OFoN1nyVccEU_4wCaDRe-38" value="" style="endArrow=none;html=1;rounded=0;entryX=0.066;entryY=1.014;entryDx=0;entryDy=0;entryPerimeter=0;strokeColor=#666666;" edge="1" parent="1">
          <mxGeometry width="50" height="50" relative="1" as="geometry">
            <mxPoint x="337" y="130" as="sourcePoint" />
            <mxPoint x="320" y="80" as="targetPoint" />
            <Array as="points">
              <mxPoint x="357" y="80" />
            </Array>
          </mxGeometry>
        </mxCell>
        <mxCell id="OFoN1nyVccEU_4wCaDRe-39" value="" style="endArrow=none;html=1;rounded=0;entryX=0.818;entryY=0.998;entryDx=0;entryDy=0;entryPerimeter=0;strokeColor=#666666;" edge="1" parent="1" target="OFoN1nyVccEU_4wCaDRe-35">
          <mxGeometry width="50" height="50" relative="1" as="geometry">
            <mxPoint x="500" y="130" as="sourcePoint" />
            <mxPoint x="480" y="90" as="targetPoint" />
            <Array as="points">
              <mxPoint x="490" y="80" />
            </Array>
          </mxGeometry>
        </mxCell>
        <mxCell id="OFoN1nyVccEU_4wCaDRe-40" value="" style="endArrow=none;html=1;rounded=0;entryX=0.237;entryY=0.998;entryDx=0;entryDy=0;entryPerimeter=0;strokeColor=#666666;" edge="1" parent="1" target="OFoN1nyVccEU_4wCaDRe-33">
          <mxGeometry width="50" height="50" relative="1" as="geometry">
            <mxPoint x="650" y="130" as="sourcePoint" />
            <mxPoint x="640" y="80" as="targetPoint" />
            <Array as="points">
              <mxPoint x="690" y="80" />
            </Array>
          </mxGeometry>
        </mxCell>
      </root>
    </mxGraphModel>
  </diagram>
  <diagram id="MX5sxLW-ZtOBxlpSGYrJ" name="System A">
    <mxGraphModel dx="892" dy="774" grid="1" gridSize="10" guides="1" tooltips="1" connect="1" arrows="1" fold="1" page="1" pageScale="1" pageWidth="827" pageHeight="1169" math="1" shadow="0">
      <root>
        <mxCell id="0" />
        <mxCell id="1" parent="0" />
        <mxCell id="OG8fZyzwZAUuJbaUQpUL-1" value="" style="edgeStyle=orthogonalEdgeStyle;rounded=0;orthogonalLoop=1;jettySize=auto;html=1;strokeWidth=2;endArrow=blockThin;endFill=1;" edge="1" parent="1" source="OG8fZyzwZAUuJbaUQpUL-2" target="OG8fZyzwZAUuJbaUQpUL-17">
          <mxGeometry relative="1" as="geometry" />
        </mxCell>
        <mxCell id="OG8fZyzwZAUuJbaUQpUL-2" value="F(s)" style="rounded=0;whiteSpace=wrap;html=1;fontFamily=IBM Plex sans;fontSize=16;strokeWidth=2;" vertex="1" parent="1">
          <mxGeometry x="230" y="110" width="60" height="50" as="geometry" />
        </mxCell>
        <mxCell id="PYwsbVVWWZHi_57scs57-9" value="" style="edgeStyle=orthogonalEdgeStyle;rounded=0;orthogonalLoop=1;jettySize=auto;html=1;strokeColor=default;strokeWidth=2;align=center;verticalAlign=middle;fontFamily=Helvetica;fontSize=11;fontColor=default;labelBackgroundColor=default;endArrow=blockThin;endFill=1;" edge="1" parent="1" source="OG8fZyzwZAUuJbaUQpUL-4" target="PYwsbVVWWZHi_57scs57-4">
          <mxGeometry relative="1" as="geometry" />
        </mxCell>
        <mxCell id="OG8fZyzwZAUuJbaUQpUL-4" value="G(s)" style="rounded=0;whiteSpace=wrap;html=1;fontFamily=IBM Plex sans;fontSize=16;strokeWidth=2;" vertex="1" parent="1">
          <mxGeometry x="373" y="110" width="60" height="50" as="geometry" />
        </mxCell>
        <mxCell id="PYwsbVVWWZHi_57scs57-3" value="" style="edgeStyle=orthogonalEdgeStyle;rounded=0;orthogonalLoop=1;jettySize=auto;html=1;strokeWidth=2;strokeColor=default;align=center;verticalAlign=middle;fontFamily=Helvetica;fontSize=11;fontColor=default;labelBackgroundColor=default;endArrow=blockThin;endFill=1;" edge="1" parent="1" target="PYwsbVVWWZHi_57scs57-1">
          <mxGeometry relative="1" as="geometry">
            <mxPoint x="130" y="135" as="sourcePoint" />
          </mxGeometry>
        </mxCell>
        <mxCell id="OG8fZyzwZAUuJbaUQpUL-16" value="" style="edgeStyle=orthogonalEdgeStyle;rounded=0;orthogonalLoop=1;jettySize=auto;html=1;strokeWidth=2;endArrow=blockThin;endFill=1;" edge="1" parent="1">
          <mxGeometry relative="1" as="geometry">
            <mxPoint x="361" y="135" as="sourcePoint" />
            <mxPoint x="372" y="135" as="targetPoint" />
          </mxGeometry>
        </mxCell>
        <mxCell id="OG8fZyzwZAUuJbaUQpUL-17" value="" style="pointerEvents=1;verticalLabelPosition=bottom;shadow=0;dashed=0;align=center;html=1;verticalAlign=top;shape=mxgraph.electrical.plc_ladder.not_contact;strokeWidth=2;" vertex="1" parent="1">
          <mxGeometry x="312" y="122.5" width="50" height="25" as="geometry" />
        </mxCell>
        <mxCell id="OG8fZyzwZAUuJbaUQpUL-22" value="Y(z)" style="text;html=1;align=center;verticalAlign=middle;resizable=0;points=[];autosize=1;strokeColor=none;fillColor=none;fontFamily=IBM Plex sans;fontSize=14;strokeWidth=2;" vertex="1" parent="1">
          <mxGeometry x="480" y="100" width="50" height="30" as="geometry" />
        </mxCell>
        <mxCell id="PYwsbVVWWZHi_57scs57-2" value="" style="edgeStyle=orthogonalEdgeStyle;rounded=0;orthogonalLoop=1;jettySize=auto;html=1;strokeWidth=2;strokeColor=default;align=center;verticalAlign=middle;fontFamily=Helvetica;fontSize=11;fontColor=default;labelBackgroundColor=default;endArrow=blockThin;endFill=1;" edge="1" parent="1" source="PYwsbVVWWZHi_57scs57-1" target="OG8fZyzwZAUuJbaUQpUL-2">
          <mxGeometry relative="1" as="geometry" />
        </mxCell>
        <mxCell id="PYwsbVVWWZHi_57scs57-1" value="" style="pointerEvents=1;verticalLabelPosition=bottom;shadow=0;dashed=0;align=center;html=1;verticalAlign=top;shape=mxgraph.electrical.plc_ladder.not_contact;strokeWidth=2;" vertex="1" parent="1">
          <mxGeometry x="170" y="122.5" width="50" height="25" as="geometry" />
        </mxCell>
        <mxCell id="PYwsbVVWWZHi_57scs57-6" style="edgeStyle=orthogonalEdgeStyle;rounded=0;orthogonalLoop=1;jettySize=auto;html=1;strokeWidth=2;strokeColor=default;align=center;verticalAlign=middle;fontFamily=Helvetica;fontSize=11;fontColor=default;labelBackgroundColor=default;endArrow=blockThin;endFill=1;" edge="1" parent="1">
          <mxGeometry relative="1" as="geometry">
            <mxPoint x="520" y="135" as="targetPoint" />
            <mxPoint x="499" y="135" as="sourcePoint" />
          </mxGeometry>
        </mxCell>
        <mxCell id="PYwsbVVWWZHi_57scs57-4" value="" style="pointerEvents=1;verticalLabelPosition=bottom;shadow=0;dashed=0;align=center;html=1;verticalAlign=top;shape=mxgraph.electrical.plc_ladder.not_contact;strokeWidth=2;" vertex="1" parent="1">
          <mxGeometry x="450" y="122.5" width="50" height="25" as="geometry" />
        </mxCell>
        <mxCell id="PYwsbVVWWZHi_57scs57-7" value="U(z)" style="text;html=1;align=center;verticalAlign=middle;resizable=0;points=[];autosize=1;strokeColor=none;fillColor=none;fontFamily=IBM Plex sans;fontSize=14;strokeWidth=2;" vertex="1" parent="1">
          <mxGeometry x="120" y="100" width="50" height="30" as="geometry" />
        </mxCell>
      </root>
    </mxGraphModel>
  </diagram>
  <diagram id="56zkcGz5n-9nIl3l5vyf" name="System B">
    <mxGraphModel dx="743" dy="645" grid="1" gridSize="10" guides="1" tooltips="1" connect="1" arrows="1" fold="1" page="1" pageScale="1" pageWidth="827" pageHeight="1169" math="1" shadow="0">
      <root>
        <mxCell id="0" />
        <mxCell id="1" parent="0" />
        <mxCell id="1M44U2AHey78fP2t8WZA-14" value="" style="edgeStyle=orthogonalEdgeStyle;rounded=0;orthogonalLoop=1;jettySize=auto;html=1;strokeColor=default;strokeWidth=2;align=center;verticalAlign=middle;fontFamily=Helvetica;fontSize=11;fontColor=default;labelBackgroundColor=default;endArrow=blockThin;endFill=1;" edge="1" parent="1" source="1M44U2AHey78fP2t8WZA-2" target="1M44U2AHey78fP2t8WZA-4">
          <mxGeometry relative="1" as="geometry" />
        </mxCell>
        <mxCell id="1M44U2AHey78fP2t8WZA-2" value="F(s)" style="rounded=0;whiteSpace=wrap;html=1;fontFamily=IBM Plex sans;fontSize=16;strokeWidth=2;" vertex="1" parent="1">
          <mxGeometry x="230" y="110" width="60" height="50" as="geometry" />
        </mxCell>
        <mxCell id="1M44U2AHey78fP2t8WZA-3" value="" style="edgeStyle=orthogonalEdgeStyle;rounded=0;orthogonalLoop=1;jettySize=auto;html=1;strokeColor=default;strokeWidth=2;align=center;verticalAlign=middle;fontFamily=Helvetica;fontSize=11;fontColor=default;labelBackgroundColor=default;endArrow=blockThin;endFill=1;" edge="1" parent="1" source="1M44U2AHey78fP2t8WZA-4" target="1M44U2AHey78fP2t8WZA-12">
          <mxGeometry relative="1" as="geometry" />
        </mxCell>
        <mxCell id="1M44U2AHey78fP2t8WZA-4" value="G(s)" style="rounded=0;whiteSpace=wrap;html=1;fontFamily=IBM Plex sans;fontSize=16;strokeWidth=2;" vertex="1" parent="1">
          <mxGeometry x="314" y="110" width="60" height="50" as="geometry" />
        </mxCell>
        <mxCell id="1M44U2AHey78fP2t8WZA-5" value="" style="edgeStyle=orthogonalEdgeStyle;rounded=0;orthogonalLoop=1;jettySize=auto;html=1;strokeWidth=2;strokeColor=default;align=center;verticalAlign=middle;fontFamily=Helvetica;fontSize=11;fontColor=default;labelBackgroundColor=default;endArrow=blockThin;endFill=1;" edge="1" parent="1" target="1M44U2AHey78fP2t8WZA-10">
          <mxGeometry relative="1" as="geometry">
            <mxPoint x="130" y="135" as="sourcePoint" />
          </mxGeometry>
        </mxCell>
        <mxCell id="1M44U2AHey78fP2t8WZA-8" value="Y(z)" style="text;html=1;align=center;verticalAlign=middle;resizable=0;points=[];autosize=1;strokeColor=none;fillColor=none;fontFamily=IBM Plex sans;fontSize=14;strokeWidth=2;" vertex="1" parent="1">
          <mxGeometry x="421" y="100" width="50" height="30" as="geometry" />
        </mxCell>
        <mxCell id="1M44U2AHey78fP2t8WZA-9" value="" style="edgeStyle=orthogonalEdgeStyle;rounded=0;orthogonalLoop=1;jettySize=auto;html=1;strokeWidth=2;strokeColor=default;align=center;verticalAlign=middle;fontFamily=Helvetica;fontSize=11;fontColor=default;labelBackgroundColor=default;endArrow=blockThin;endFill=1;" edge="1" parent="1" source="1M44U2AHey78fP2t8WZA-10" target="1M44U2AHey78fP2t8WZA-2">
          <mxGeometry relative="1" as="geometry" />
        </mxCell>
        <mxCell id="1M44U2AHey78fP2t8WZA-10" value="" style="pointerEvents=1;verticalLabelPosition=bottom;shadow=0;dashed=0;align=center;html=1;verticalAlign=top;shape=mxgraph.electrical.plc_ladder.not_contact;strokeWidth=2;" vertex="1" parent="1">
          <mxGeometry x="170" y="122.5" width="50" height="25" as="geometry" />
        </mxCell>
        <mxCell id="1M44U2AHey78fP2t8WZA-11" style="edgeStyle=orthogonalEdgeStyle;rounded=0;orthogonalLoop=1;jettySize=auto;html=1;strokeWidth=2;strokeColor=default;align=center;verticalAlign=middle;fontFamily=Helvetica;fontSize=11;fontColor=default;labelBackgroundColor=default;endArrow=blockThin;endFill=1;" edge="1" parent="1">
          <mxGeometry relative="1" as="geometry">
            <mxPoint x="461" y="135" as="targetPoint" />
            <mxPoint x="440" y="135" as="sourcePoint" />
          </mxGeometry>
        </mxCell>
        <mxCell id="1M44U2AHey78fP2t8WZA-12" value="" style="pointerEvents=1;verticalLabelPosition=bottom;shadow=0;dashed=0;align=center;html=1;verticalAlign=top;shape=mxgraph.electrical.plc_ladder.not_contact;strokeWidth=2;" vertex="1" parent="1">
          <mxGeometry x="391" y="122.5" width="50" height="25" as="geometry" />
        </mxCell>
        <mxCell id="1M44U2AHey78fP2t8WZA-13" value="U(z)" style="text;html=1;align=center;verticalAlign=middle;resizable=0;points=[];autosize=1;strokeColor=none;fillColor=none;fontFamily=IBM Plex sans;fontSize=14;strokeWidth=2;" vertex="1" parent="1">
          <mxGeometry x="120" y="100" width="50" height="30" as="geometry" />
        </mxCell>
      </root>
    </mxGraphModel>
  </diagram>
</mxfile>
